<?xml version="1.0" encoding="UTF-8"?>
<svg width="246px" height="60px" viewBox="0 0 246 60" version="1.1" xmlns="http://www.w3.org/2000/svg" xmlns:xlink="http://www.w3.org/1999/xlink">
    <!-- Generator: Sketch 44.1 (41455) - http://www.bohemiancoding.com/sketch -->
    <title>icon-yellow-example</title>
    <desc>Created with Sketch.</desc>
    <defs></defs>
    <g id="Page-1" stroke="none" stroke-width="1" fill="none" fill-rule="evenodd">
        <g id="Colors" transform="translate(-1058.000000, -2236.000000)">
            <g id="icon-yellow-example" transform="translate(1059.000000, 2236.000000)">
                <text id="Warning" font-family="ScalaSansOT, Scala Sans OT" font-size="18" font-weight="normal" fill="#57585A">
                    <tspan x="49" y="16">Warning</tspan>
                </text>
                <text id="In-Progress-/-Receiv" font-family="ScalaSansOT, Scala Sans OT" font-size="18" font-weight="normal" fill="#57585A">
                    <tspan x="49" y="55">In Progress / Received / …</tspan>
                </text>
                <g id="Group-6-Copy-5" transform="translate(1.000000, 43.000000)" stroke="#616161" stroke-width="1.3">
                    <circle id="Oval-2-Copy-9" fill="#FFDC46" cx="6.5" cy="6.5" r="6.5"></circle>
                    <polyline id="Path-3-Copy-2" transform="translate(7.691654, 6.849042) rotate(59.000000) translate(-7.691654, -6.849042) " points="4.65903682 6.36445316 6.91480474 7.71985527 10.724271 5.97822842"></polyline>
                </g>
                <g id="Group-6" transform="translate(0.000000, 1.000000)">
                    <path d="M6.46972166,0.740823079 C6.96346724,-0.246668067 7.76371404,-0.247213948 8.25773255,0.740823079 L14.5355752,13.2965083 C15.0293208,14.2839995 14.5392917,15.0845192 13.4353372,15.0845192 L1.29211707,15.0845192 C0.190726807,15.0845192 -0.302139479,14.2845454 0.191879034,13.2965083 L6.46972166,0.740823079 Z" id="Triangle-3" stroke="#5C5C5C" fill="#FFDC46"></path>
                    <g id="Page-1" transform="translate(6.000000, 4.000000)" fill="#50565B">
                        <path d="M0.673453061,5.22990493 C0.709881633,5.60656871 0.771116327,5.88349179 0.860973469,6.07692308 C0.973728571,6.32031115 1.18293265,6.44891962 1.46638163,6.44891962 C1.74375918,6.44891962 1.95435102,6.31858254 2.07577959,6.07208297 C2.17448367,5.87087295 2.23675918,5.59775281 2.26520816,5.23923941 L2.50910612,2.45272256 C2.53599388,2.19187554 2.54969796,1.9298185 2.54969796,1.6741573 C2.54969796,1.21728608 2.48950408,0.871737252 2.36512653,0.617458946 C2.26520816,0.413310285 2.03987143,0.170267934 1.53472857,0.170267934 C1.20999388,0.170267934 0.942677551,0.27968885 0.740238776,0.495419188 C0.540922449,0.707865169 0.439789796,0.999481417 0.439789796,1.36318064 C0.439789796,1.59757995 0.457136735,1.98426966 0.491310204,2.51356958 L0.673453061,5.22990493 Z" id="Fill-4"></path>
                        <path d="M1.48929694,7.04485739 C1.19734796,7.04485739 0.947031633,7.14788245 0.744766327,7.34891962 C0.542327551,7.55047537 0.439807143,7.79835782 0.439807143,8.08513397 C0.439807143,8.41149525 0.549613265,8.67199654 0.766276531,8.85920484 C0.974613265,9.03984443 1.22163367,9.13076923 1.50057245,9.13076923 C1.77638878,9.13076923 2.02115408,9.03828868 2.22810306,8.85505618 C2.44129694,8.66577355 2.54971531,8.40717373 2.54971531,8.08496111 C2.54971531,7.79732066 2.4449398,7.54874676 2.23747041,7.34684529 C2.03156224,7.14684529 1.77985816,7.04485739 1.48929694,7.04485739" id="Fill-6"></path>
                    </g>
                </g>
            </g>
        </g>
    </g>
</svg>