<?xml version="1.0" encoding="UTF-8"?>
<svg width="185px" height="99px" viewBox="0 0 185 99" version="1.1" xmlns="http://www.w3.org/2000/svg" xmlns:xlink="http://www.w3.org/1999/xlink">
    <!-- Generator: Sketch 44.1 (41455) - http://www.bohemiancoding.com/sketch -->
    <title>icon-red-example</title>
    <desc>Created with Sketch.</desc>
    <defs></defs>
    <g id="Page-1" stroke="none" stroke-width="1" fill="none" fill-rule="evenodd">
        <g id="Colors" transform="translate(-1057.000000, -2459.000000)">
            <g id="icon-red-example" transform="translate(1058.000000, 2457.000000)">
                <text id="Delete" font-family="ScalaSansOT, Scala Sans OT" font-size="18" font-weight="normal" fill="#57585A">
                    <tspan x="50" y="16">Delete</tspan>
                </text>
                <text id="Notifications" font-family="ScalaSansOT, Scala Sans OT" font-size="18" font-weight="normal" fill="#57585A">
                    <tspan x="50" y="58">Notifications</tspan>
                </text>
                <path d="M9.77652542,16.9021286 L9.10534144,18.7132941 L5.92516692,18.7132941 L5.25441264,16.9021286 L9.77652542,16.9021286 Z M2.0398625,14.5031401 L3.38523832,14.5031401 L3.9829444,6.23193627 L11.0170556,6.23193627 L11.7642956,14.5031401 L13.0215839,14.5031401 L12.2743439,5.36008462 C12.2743439,5.16113572 12.1140676,5 11.9159781,5 L3.14546837,5 C2.94737886,5 2.78710253,5.16113572 2.78710253,5.36008462 L2.0398625,14.5031401 Z M3.68946255,16.9021286 L4.94331328,19.7931183 L10.1181331,19.7931183 L11.3109671,16.9021286 L13.724995,16.9021286 C13.8771072,16.9021286 14,16.7779467 14,16.6249752 L14,15.9460567 C14,15.7935149 13.8775369,15.6701924 13.7262841,15.6701924 L1.27371587,15.6701924 C1.12246315,15.6701924 1,15.7935149 1,15.9460567 L1,16.6262643 C1,16.7783764 1.12246315,16.9021286 1.27371587,16.9021286 L3.68946255,16.9021286 Z" id="Fill-14-Copy" fill="#C71D46" transform="translate(7.500000, 12.396559) rotate(180.000000) translate(-7.500000, -12.396559) "></path>
                <g id="Group-2" transform="translate(0.000000, 43.000000)">
                    <g id="Group-5-Copy-22" transform="translate(0.245585, 3.000000)" stroke="#5F5F5F" stroke-width="1.3" fill="#C71D46">
                        <circle id="Oval-2-Copy-8" cx="6.5" cy="6.5" r="6.5"></circle>
                    </g>
                    <text id="1" font-family="ScalaSansOT-Bold, Scala Sans OT" font-size="14" font-weight="bold" fill="#FFFFFF">
                        <tspan x="4.24558549" y="13">1</tspan>
                    </text>
                </g>
                <text id="Delete-Selected-Prog-Copy" font-family="ScalaSansOT, Scala Sans OT" font-size="15" font-weight="normal" fill="#C71D1D">
                    <tspan x="24.415" y="97">Delete Selected Programs</tspan>
                </text>
                <path d="M5.22347458,86.8909896 L5.89465856,85.0798242 L9.07483308,85.0798242 L9.74558736,86.8909896 L5.22347458,86.8909896 Z M12.9601375,89.2899782 L11.6147617,89.2899782 L11.0170556,97.561182 L3.9829444,97.561182 L3.23570437,89.2899782 L1.97841608,89.2899782 L2.72565611,98.4330336 C2.72565611,98.6319825 2.88593244,98.7931183 3.08402195,98.7931183 L11.8545316,98.7931183 C12.0526211,98.7931183 12.2128975,98.6319825 12.2128975,98.4330336 L12.9601375,89.2899782 Z M11.3105374,86.8909896 L10.0566867,84 L4.88186686,84 L3.68903286,86.8909896 L1.27500496,86.8909896 C1.12289284,86.8909896 1,87.0151715 1,87.1681431 L1,87.8470615 C1,87.9996034 1.12246315,88.1229259 1.27371587,88.1229259 L13.7262841,88.1229259 C13.8775369,88.1229259 14,87.9996034 14,87.8470615 L14,87.166854 C14,87.0147419 13.8775369,86.8909896 13.7262841,86.8909896 L11.3105374,86.8909896 Z" id="Fill-14" fill="#C81D1D"></path>
            </g>
        </g>
    </g>
</svg>